
        <svg xmlns="http://www.w3.org/2000/svg" xmlns:xlink="http://www.w3.org/1999/xlink" version="1.1" width="3187.5" 
        height="1851.1092600716274" viewBox="0 0 3187.5 1851.1092600716274">
			
			<g transform="scale(9.375) translate(10, 10)">
				<defs id="SvgjsDefs1273"></defs><g id="SvgjsG1274" featureKey="symbolFeature-0" transform="matrix(2.028166747516667,0,0,2.028166747516667,-51.40873582320387,-12.682883474646754)" fill="#ffaa64"><g xmlns="http://www.w3.org/2000/svg"><path d="M31.224,16.248c0.022,0.028,0.048,0.056,0.073,0.082l0.001,0l0.002-0.002l1.018,1.027l1.508-1.49   c-0.344-0.348-0.701-0.723-1.046-1.059c-0.032-0.043-0.048-0.095-0.048-0.146c0-0.062,0.024-0.125,0.073-0.173   c0.963-0.963,1.935-1.918,2.901-2.877c0.047-0.046,0.11-0.069,0.172-0.069s0.125,0.025,0.173,0.073l1.027,1.037l1.508-1.49   l-1.032-1.041c-0.456-0.461-1.062-0.693-1.667-0.696s-1.213,0.225-1.675,0.684l-2.847,2.822c-0.021,0.018-0.04,0.036-0.06,0.055   l0.002,0.002c-0.46,0.457-0.691,1.06-0.693,1.665C30.611,15.222,30.814,15.796,31.224,16.248z"></path><path d="M74.653,44.026v-3.492H31.871L62.15,10.516l-0.226-0.228c-5.301-5.347-13.985-5.384-19.332-0.083L31.338,21.363   c-5.348,5.301-5.385,13.985-0.084,19.332l0.226,0.228l0.06-0.059v3.162c0,6.714,3.352,12.66,8.457,16.285L27.952,86.593   c-0.09,0.104-0.164,0.221-0.208,0.351c-0.081,0.125-0.126,0.272-0.148,0.427l-2.152,4.696c-0.244,0.533-0.01,1.164,0.524,1.409   c0.143,0.065,0.294,0.097,0.441,0.097c0.403,0,0.788-0.23,0.968-0.621l2.001-4.367h39.896l1.411,4.422   c0.145,0.452,0.563,0.74,1.013,0.74c0.106,0,0.216-0.017,0.323-0.051c0.56-0.179,0.868-0.776,0.689-1.336l-9.646-30.232   C69.892,58.944,74.653,52.032,74.653,44.026z M41.807,61.465c2.879,1.611,6.188,2.539,9.71,2.539h2.096v14.508L30.769,85.55   L41.807,61.465z M35.044,86.457l19.521-6.015l11.245,6.015H35.044z M68.242,85.347l-12.503-6.688V63.95   c1.861-0.1,3.655-0.446,5.35-1.024L68.242,85.347z M62.272,58.272c-0.127,0.081-0.266,0.105-0.412,0.078l-0.394-1.233   c0.013-0.01,0.02-0.023,0.033-0.032c4.226-2.701,7.338-7.005,8.467-12.042c0.034-0.155,0.121-0.277,0.257-0.36   c0.136-0.084,0.283-0.106,0.438-0.067c0.081,0.02,0.162,0.039,0.244,0.056c0.155,0.031,0.278,0.115,0.364,0.248   c0.087,0.134,0.113,0.279,0.078,0.435C70.138,50.757,66.803,55.373,62.272,58.272z"></path><path d="M42.164,35.545c-0.483,0.616-0.376,1.506,0.24,1.99c1.461,1.147,3.09,1.718,4.753,1.718c1.794,0,3.626-0.665,5.325-1.992   c0.617-0.481,0.727-1.372,0.245-1.989c-0.48-0.617-1.372-0.727-1.989-0.245c-1.587,1.239-4.016,2.293-6.584,0.278   C43.54,34.823,42.649,34.929,42.164,35.545z"></path><path d="M57.654,35.305c-0.615-0.482-1.505-0.376-1.99,0.24c-0.483,0.616-0.376,1.506,0.24,1.99   c1.461,1.147,3.09,1.718,4.753,1.718c1.794,0,3.626-0.665,5.325-1.992c0.617-0.481,0.727-1.372,0.245-1.989   c-0.481-0.617-1.372-0.727-1.989-0.245C62.651,36.266,60.222,37.32,57.654,35.305z"></path><path d="M59.73,34.352c0.123,0.253,0.376,0.401,0.64,0.401c0.103,0,0.208-0.023,0.307-0.071c0.353-0.17,0.501-0.594,0.331-0.946   c-1.773-3.674-1.178-4.87-0.487-6.254c0.611-1.227,1.305-2.618,0.532-5.438c-0.103-0.376-0.492-0.599-0.871-0.496   c-0.377,0.104-0.6,0.493-0.496,0.871c0.63,2.297,0.137,3.286-0.434,4.43C58.467,28.423,57.655,30.051,59.73,34.352z"></path><path d="M62.24,30.087c0.309,0.532,0.222,0.701,0.012,1.111c-0.255,0.499-0.641,1.253-0.031,2.462   c0.125,0.247,0.374,0.39,0.634,0.39c0.106,0,0.216-0.024,0.318-0.076c0.35-0.176,0.489-0.603,0.313-0.952   c-0.285-0.566-0.181-0.771,0.027-1.178c0.259-0.504,0.648-1.267-0.047-2.467c-0.195-0.337-0.627-0.454-0.969-0.258   C62.159,29.314,62.044,29.748,62.24,30.087z"></path><path d="M47.973,34.297c0.093,0.306,0.374,0.503,0.678,0.503c0.068,0,0.138-0.01,0.206-0.031c0.375-0.114,0.586-0.51,0.472-0.884   c-0.394-1.295-0.245-1.96-0.074-2.731c0.179-0.803,0.382-1.714,0.016-3.251c-0.092-0.382-0.481-0.619-0.854-0.525   c-0.381,0.091-0.616,0.473-0.525,0.854c0.291,1.22,0.146,1.866-0.02,2.615C47.683,31.689,47.47,32.646,47.973,34.297z"></path><path d="M45.188,34.594c0.138,0.199,0.358,0.306,0.584,0.306c0.139,0,0.279-0.041,0.401-0.125c0.322-0.222,0.403-0.664,0.181-0.986   c-0.061-0.087-0.071-0.103,0.074-0.459c0.176-0.43,0.469-1.149-0.042-2.042c-0.194-0.339-0.627-0.458-0.968-0.263   c-0.339,0.195-0.457,0.627-0.263,0.967c0.16,0.28,0.118,0.416-0.04,0.803C44.953,33.193,44.681,33.86,45.188,34.594z"></path></g></g><g id="SvgjsG1275" featureKey="nameFeature-0" transform="matrix(1.7023114756472324,0,0,1.7023114756472324,117.7881977339615,40.914473563306174)" fill="#ff8264"><path d="M12.08 14.36 c0.08 0.16 0.13356 0.28004 0.16024 0.36004 s0.02668 0.16 0 0.24 s-0.08 0.17332 -0.16 0.28 l-0.36 0.48 c-0.08 0.02668 -0.47332 0.34 -1.18 0.94 s-1.5134 1.5267 -2.42 2.78 s-1.8067 2.8333 -2.7 4.74 s-1.5533 4.1668 -1.98 6.78 c0 0.10668 -0.03332 0.40668 -0.1 0.9 s-0.13336 1.08 -0.20004 1.76 s-0.11336 1.4267 -0.14004 2.24 s0.01332 1.5933 0.12 2.34 c0.18668 0.48 0.39336 0.85332 0.62004 1.12 s0.64668 0.58668 1.26 0.96 c0.72 0.13332 1.4667 0.05332 2.24 -0.24 s1.5333 -0.72664 2.28 -1.3 s1.4534 -1.2466 2.12 -2.02 s1.26 -1.5733 1.78 -2.4 s0.94 -1.6467 1.26 -2.46 s0.49332 -1.54 0.52 -2.18 c-0.18668 0 -0.5 0.09332 -0.94 0.28 s-0.93332 0.40668 -1.48 0.66 s-1.1 0.51332 -1.66 0.78 s-1.04 0.46668 -1.44 0.6 c-0.34668 -0.16 -0.64668 -0.36 -0.9 -0.6 s-0.35332 -0.62668 -0.3 -1.16 c0.24 0 0.62 -0.09332 1.14 -0.28 s1.1267 -0.42 1.82 -0.7 s1.4266 -0.6 2.2 -0.96 s1.5266 -0.72 2.26 -1.08 s1.4 -0.70668 2 -1.04 s1.0733 -0.62 1.42 -0.86 c0.24 0 0.49332 -0.08668 0.76 -0.26 s0.52 -0.26 0.76 -0.26 c-0.05332 0.29332 -0.24664 0.64664 -0.57996 1.06 s-0.70664 0.81332 -1.12 1.2 s-0.82664 0.74668 -1.24 1.08 s-0.74 0.56664 -0.98 0.69996 l0 1.02 l0.1 1.9 l0.4 2 l0.9 1.32 c-0.16 0.53332 -0.37332 0.80664 -0.64 0.81996 s-0.53336 -0.1 -0.80004 -0.34 s-0.49336 -0.56 -0.68004 -0.96 s-0.29336 -0.74668 -0.32004 -1.04 c-0.64 0.8 -1.28 1.62 -1.92 2.46 s-1.3733 1.74 -2.2 2.7 c-0.42668 0.37332 -0.82 0.7 -1.18 0.98 s-0.72 0.54 -1.08 0.78 s-0.73332 0.45332 -1.12 0.64 s-0.82 0.36 -1.3 0.52 c-0.53332 0.16 -1.02 0.27332 -1.46 0.34 s-0.85332 0.06668 -1.24 0 s-0.75336 -0.23336 -1.1 -0.50004 s-0.69336 -0.66668 -1.04 -1.2 c-0.61332 -1.3333 -0.92664 -2.7066 -0.93996 -4.12 s0.12668 -2.9733 0.42 -4.68 c0.29332 -1.84 0.65332 -3.5067 1.08 -5 s0.92668 -2.8733 1.5 -4.14 s1.2466 -2.4334 2.02 -3.5 s1.6666 -2.0934 2.68 -3.08 c0.10668 -0.02668 0.26668 -0.12 0.48 -0.28 s0.46 -0.32668 0.74 -0.5 s0.58 -0.32664 0.9 -0.45996 s0.64 -0.18664 0.96 -0.15996 z M20.68 27.36 c-0.02668 -0.24 0.099804 -0.30016 0.3798 -0.18016 s0.56668 0.24668 0.86 0.38 c0.10668 0.61332 0.18668 1.1 0.24 1.46 s0.09332 0.7 0.12 1.02 s0.05336 0.66668 0.08004 1.04 s0.06668 0.86664 0.12 1.48 c0.24 -0.61332 0.53332 -1.18 0.88 -1.7 s0.79336 -0.96668 1.34 -1.34 s1.2 -0.64664 1.96 -0.81996 s1.6733 -0.23332 2.74 -0.18 c0 0.21332 -0.07332 0.39332 -0.22 0.54 s-0.48668 0.26 -1.02 0.34 c-0.77332 0.13332 -1.4466 0.39332 -2.02 0.78 s-1.0666 0.83336 -1.48 1.34 s-0.74664 1.0467 -0.99996 1.62 s-0.46 1.1 -0.62 1.58 c-0.02668 0.24 -0.06 0.58 -0.1 1.02 s-0.06668 0.90668 -0.08 1.4 s-0.026641 0.97332 -0.039961 1.44 s0.0066796 0.83336 0.06 1.1 c0.02668 0.13332 -0.03332 0.23332 -0.18 0.3 s-0.31336 0.11336 -0.50004 0.14004 s-0.36 0.013359 -0.52 -0.039961 s-0.24 -0.14664 -0.24 -0.27996 c0.05332 -2.7467 -0.02 -5.1132 -0.22 -7.1 s-0.38 -3.7667 -0.54 -5.34 z M36.519999999999996 28.240000000000002 c-0.02668 0.16 -0.0866 0.49324 -0.17992 0.99992 s-0.19332 1.1 -0.3 1.78 s-0.2 1.3933 -0.28 2.14 s-0.12668 1.4534 -0.14 2.12 s0.02668 1.2334 0.12 1.7 s0.24664 0.75336 0.45996 0.86004 c0.61332 0.29332 1.24 0.19332 1.88 -0.3 s1.3867 -1.2466 2.24 -2.26 c0.08 0 0.08668 0.10668 0.02 0.32 s-0.17336 0.44664 -0.32004 0.69996 l-0.44 0.76 l-0.34 0.5 c-0.21332 0.26668 -0.52 0.56668 -0.92 0.9 s-0.82668 0.6 -1.28 0.8 s-0.88664 0.28668 -1.3 0.26 s-0.75332 -0.26668 -1.02 -0.72 c-0.13332 -0.32 -0.21332 -0.71332 -0.24 -1.18 s-0.02668 -0.94 0 -1.42 s0.06668 -0.92 0.12 -1.32 s0.09332 -0.69332 0.12 -0.88 c-0.56 1.04 -1.2 2.0267 -1.92 2.96 s-1.4267 1.6666 -2.12 2.2 s-1.3333 0.82 -1.92 0.86 s-1.04 -0.3 -1.36 -1.02 c-0.18668 -0.69332 -0.18668 -1.4733 0 -2.34 s0.46668 -1.6467 0.84 -2.34 c0.56 -0.96 1.1467 -1.84 1.76 -2.64 s1.2666 -1.48 1.96 -2.04 s1.42 -0.96668 2.18 -1.22 s1.5533 -0.31332 2.38 -0.18 z M29.0001 38.3999 c0.26668 0.05332 0.69332 -0.14672 1.28 -0.60004 s1.2 -1.0866 1.84 -1.9 s1.22 -1.76 1.74 -2.84 s0.86 -2.22 1.02 -3.42 l-0.46 0 l-0.7 0.24 c-1.0133 0.66668 -1.88 1.4467 -2.6 2.34 s-1.28 1.76 -1.68 2.6 s-0.64 1.5933 -0.72 2.26 s0.01332 1.1067 0.28 1.32 z M38.96 14.32 c0.08 0 0.18004 -0.033164 0.30004 -0.099844 s0.24668 -0.08668 0.38 -0.06 s0.25332 0.14668 0.36 0.36 s0.18668 0.58664 0.24 1.12 c0.05332 0.66668 0.10664 1.48 0.15996 2.44 s0.11332 1.9933 0.18 3.1 s0.14 2.26 0.22 3.46 s0.16 2.3667 0.24 3.5 s0.15332 2.1866 0.22 3.16 s0.12668 1.8066 0.18 2.5 c0.08 -0.32 0.24 -0.75332 0.48 -1.3 s0.54 -1.12 0.9 -1.72 s0.78 -1.1733 1.26 -1.72 s1 -0.96668 1.56 -1.26 c0.45332 -0.18668 0.84 -0.28668 1.16 -0.3 s0.59332 0.033359 0.82 0.14004 s0.41336 0.24 0.56004 0.4 s0.26 0.30668 0.34 0.44 c0.32 0.77332 0.43332 1.6666 0.34 2.68 s-0.34664 2.02 -0.75996 3.02 s-0.98 1.9133 -1.7 2.74 s-1.56 1.4267 -2.52 1.8 c-0.53332 0.21332 -0.92 0.32664 -1.16 0.33996 s-0.48 0.02 -0.72 0.02 c0.05332 0.4 0.06664 0.66668 0.039961 0.8 s-0.06668 0.21332 -0.12 0.24 c-0.10668 0.10668 -0.28 0.16668 -0.52 0.18 s-0.48 -0.0066796 -0.72 -0.06 c-0.16 -2.08 -0.30668 -4.0932 -0.44 -6.04 c-0.05332 -0.82668 -0.11332 -1.68 -0.18 -2.56 s-0.13336 -1.7333 -0.20004 -2.56 s-0.12668 -1.6067 -0.18 -2.34 s-0.09332 -1.38 -0.12 -1.94 c-0.02668 -1.0133 -0.08668 -2.1333 -0.18 -3.36 s-0.18 -2.3667 -0.26 -3.42 s-0.14668 -1.94 -0.2 -2.66 s-0.04 -1.0667 0.04 -1.04 z M45.68 29.4 c-0.37332 0.21332 -0.7668 0.58672 -1.1801 1.12 s-0.8 1.18 -1.16 1.94 s-0.66668 1.5933 -0.92 2.5 s-0.40664 1.8134 -0.45996 2.72 c0.53332 0.13332 1.08 0.06 1.64 -0.22 s1.08 -0.67332 1.56 -1.18 s0.91332 -1.0934 1.3 -1.76 s0.69336 -1.3267 0.92004 -1.98 s0.35336 -1.2666 0.38004 -1.84 s-0.08 -1.0333 -0.32 -1.38 c-0.18668 -0.34668 -0.46668 -0.47336 -0.84 -0.38004 s-0.68 0.24664 -0.92 0.45996 z M57.56 30.439999999999998 c0.08 0 0.13336 0.05328 0.16004 0.15996 s0.033359 0.23336 0.020039 0.38004 s-0.04 0.28668 -0.08 0.42 s-0.07332 0.22664 -0.1 0.27996 c-0.29332 -0.02668 -0.76 -0.033359 -1.4 -0.020039 s-1.3067 0.04 -2 0.08 s-1.32 0.09332 -1.88 0.16 s-0.89332 0.15336 -1 0.26004 c-0.13332 -0.50668 -0.11332 -0.90668 0.06 -1.2 s0.47332 -0.42664 0.9 -0.39996 c0.48 0 0.9 -0.0066796 1.26 -0.02 s0.72668 -0.02 1.1 -0.02 s0.78664 -0.0066796 1.24 -0.02 s1.0266 -0.03332 1.72 -0.06 z M69 28.240000000000002 c-0.02668 0.16 -0.0866 0.49324 -0.17992 0.99992 s-0.19332 1.1 -0.3 1.78 s-0.2 1.3933 -0.28 2.14 s-0.12668 1.4534 -0.14 2.12 s0.02668 1.2334 0.12 1.7 s0.24664 0.75336 0.45996 0.86004 c0.61332 0.29332 1.24 0.19332 1.88 -0.3 s1.3867 -1.2466 2.24 -2.26 c0.08 0 0.08668 0.10668 0.02 0.32 s-0.17336 0.44664 -0.32004 0.69996 l-0.44 0.76 l-0.34 0.5 c-0.21332 0.26668 -0.52 0.56668 -0.92 0.9 s-0.82668 0.6 -1.28 0.8 s-0.88664 0.28668 -1.3 0.26 s-0.75332 -0.26668 -1.02 -0.72 c-0.13332 -0.32 -0.21332 -0.71332 -0.24 -1.18 s-0.02668 -0.94 0 -1.42 s0.06668 -0.92 0.12 -1.32 s0.09332 -0.69332 0.12 -0.88 c-0.56 1.04 -1.2 2.0267 -1.92 2.96 s-1.4267 1.6666 -2.12 2.2 s-1.3333 0.82 -1.92 0.86 s-1.04 -0.3 -1.36 -1.02 c-0.18668 -0.69332 -0.18668 -1.4733 0 -2.34 s0.46668 -1.6467 0.84 -2.34 c0.56 -0.96 1.1467 -1.84 1.76 -2.64 s1.2666 -1.48 1.96 -2.04 s1.42 -0.96668 2.18 -1.22 s1.5533 -0.31332 2.38 -0.18 z M61.48010000000001 38.3999 c0.26668 0.05332 0.69332 -0.14672 1.28 -0.60004 s1.2 -1.0866 1.84 -1.9 s1.22 -1.76 1.74 -2.84 s0.86 -2.22 1.02 -3.42 l-0.46 0 l-0.7 0.24 c-1.0133 0.66668 -1.88 1.4467 -2.6 2.34 s-1.28 1.76 -1.68 2.6 s-0.64 1.5933 -0.72 2.26 s0.01332 1.1067 0.28 1.32 z M79.2 30.439999999999998 c0.08 0 0.13336 0.05328 0.16004 0.15996 s0.033359 0.23336 0.020039 0.38004 s-0.04 0.28668 -0.08 0.42 s-0.07332 0.22664 -0.1 0.27996 c-0.29332 -0.02668 -0.76 -0.033359 -1.4 -0.020039 s-1.3067 0.04 -2 0.08 s-1.32 0.09332 -1.88 0.16 s-0.89332 0.15336 -1 0.26004 c-0.13332 -0.50668 -0.11332 -0.90668 0.06 -1.2 s0.47332 -0.42664 0.9 -0.39996 c0.48 0 0.9 -0.0066796 1.26 -0.02 s0.72668 -0.02 1.1 -0.02 s0.78664 -0.0066796 1.24 -0.02 s1.0266 -0.03332 1.72 -0.06 z M81.44 14.32 c0.08 0 0.18004 -0.033164 0.30004 -0.099844 s0.24668 -0.08668 0.38 -0.06 s0.25332 0.14668 0.36 0.36 s0.18668 0.58664 0.24 1.12 c0.05332 0.66668 0.10664 1.48 0.15996 2.44 s0.11332 1.9933 0.18 3.1 s0.14 2.26 0.22 3.46 s0.16 2.3667 0.24 3.5 s0.15332 2.1866 0.22 3.16 s0.12668 1.8066 0.18 2.5 c0.08 -0.32 0.24 -0.75332 0.48 -1.3 s0.54 -1.12 0.9 -1.72 s0.78 -1.1733 1.26 -1.72 s1 -0.96668 1.56 -1.26 c0.45332 -0.18668 0.84 -0.28668 1.16 -0.3 s0.59332 0.033359 0.82 0.14004 s0.41336 0.24 0.56004 0.4 s0.26 0.30668 0.34 0.44 c0.32 0.77332 0.43332 1.6666 0.34 2.68 s-0.34664 2.02 -0.75996 3.02 s-0.98 1.9133 -1.7 2.74 s-1.56 1.4267 -2.52 1.8 c-0.53332 0.21332 -0.92 0.32664 -1.16 0.33996 s-0.48 0.02 -0.72 0.02 c0.05332 0.4 0.06664 0.66668 0.039961 0.8 s-0.06668 0.21332 -0.12 0.24 c-0.10668 0.10668 -0.28 0.16668 -0.52 0.18 s-0.48 -0.0066796 -0.72 -0.06 c-0.16 -2.08 -0.30668 -4.0932 -0.44 -6.04 c-0.05332 -0.82668 -0.11332 -1.68 -0.18 -2.56 s-0.13336 -1.7333 -0.20004 -2.56 s-0.12668 -1.6067 -0.18 -2.34 s-0.09332 -1.38 -0.12 -1.94 c-0.02668 -1.0133 -0.08668 -2.1333 -0.18 -3.36 s-0.18 -2.3667 -0.26 -3.42 s-0.14668 -1.94 -0.2 -2.66 s-0.04 -1.0667 0.04 -1.04 z M88.16000000000001 29.4 c-0.37332 0.21332 -0.7668 0.58672 -1.1801 1.12 s-0.8 1.18 -1.16 1.94 s-0.66668 1.5933 -0.92 2.5 s-0.40664 1.8134 -0.45996 2.72 c0.53332 0.13332 1.08 0.06 1.64 -0.22 s1.08 -0.67332 1.56 -1.18 s0.91332 -1.0934 1.3 -1.76 s0.69336 -1.3267 0.92004 -1.98 s0.35336 -1.2666 0.38004 -1.84 s-0.08 -1.0333 -0.32 -1.38 c-0.18668 -0.34668 -0.46668 -0.47336 -0.84 -0.38004 s-0.68 0.24664 -0.92 0.45996 z M95.2 22.4 c0.26668 -0.05332 0.42664 0.10672 0.47996 0.48004 s0 0.65332 -0.16 0.84 c-0.29332 0.24 -0.48 0.44668 -0.56 0.62 s-0.26668 0.28664 -0.56 0.33996 c-0.16 -0.02668 -0.3 -0.033359 -0.42 -0.020039 s-0.22 -0.20668 -0.3 -0.66 c0.10668 -0.29332 0.27336 -0.58664 0.50004 -0.87996 s0.56668 -0.53332 1.02 -0.72 z M95.32000000000001 27.6 c0.13332 1.28 0.22676 2.6867 0.28008 4.22 s0.14664 3.14 0.27996 4.82 c0.10668 0.85332 0.21336 1.52 0.32004 2 s0.18668 0.93332 0.24 1.36 c-0.42668 0.08 -0.76 0.07332 -1 -0.02 s-0.46668 -0.20664 -0.68 -0.33996 c-0.05332 -0.42668 -0.11332 -1.1334 -0.18 -2.12 s-0.13336 -2.06 -0.20004 -3.22 s-0.13336 -2.2867 -0.20004 -3.38 s-0.12668 -1.96 -0.18 -2.6 c0.10668 -0.05332 0.19336 -0.13332 0.26004 -0.24 s0.14 -0.2 0.22 -0.28 s0.18668 -0.14668 0.32 -0.2 s0.30664 -0.05332 0.51996 0 z M103.36000000000001 28.08 c1.1467 -0.08 2.2734 -0.16676 3.38 -0.26008 s2.26 -0.19332 3.46 -0.3 c0.26668 0.02668 0.44 0.16668 0.52 0.42 s-0.02668 0.40664 -0.32 0.45996 c-0.98668 0.10668 -2.12 0.25336 -3.4 0.44004 s-2.4933 0.42668 -3.64 0.72 c0.05332 0.82668 0.08 1.6734 0.08 2.54 s0.02 1.72 0.06 2.56 s0.12 1.6533 0.24 2.44 s0.31332 1.5134 0.58 2.18 c0.37332 0.45332 0.74664 0.72 1.12 0.8 s0.72664 0.06 1.06 -0.06 s0.64 -0.30668 0.92 -0.56 s0.52668 -0.5 0.74 -0.74 c0.18668 -0.18668 0.34 -0.18668 0.46 0 s0.0066796 0.46668 -0.34 0.84 c-0.16 0.18668 -0.36 0.38668 -0.6 0.6 s-0.52668 0.39332 -0.86 0.54 s-0.70664 0.24 -1.12 0.28 s-0.86 -0.0066796 -1.34 -0.14 c-0.61332 -0.16 -1.0666 -0.65332 -1.36 -1.48 s-0.51332 -1.7934 -0.66 -2.9 s-0.24668 -2.26 -0.3 -3.46 s-0.12 -2.28 -0.2 -3.24 c-1.1733 0.10668 -2.0333 0.2 -2.58 0.28 s-0.94 0.13332 -1.18 0.16 s-0.4 0.013359 -0.48 -0.039961 s-0.22668 -0.17332 -0.44 -0.36 c0.02668 -0.13332 0.033359 -0.26 0.020039 -0.38 s-0.01332 -0.22 0 -0.3 s0.06664 -0.16 0.15996 -0.24 s0.27332 -0.14668 0.54 -0.2 c0.4 -0.10668 0.98 -0.16668 1.74 -0.18 s1.5 -0.07332 2.22 -0.18 c-0.02668 -0.85332 -0.05336 -1.52 -0.08004 -2 s-0.05336 -0.9 -0.08004 -1.26 s-0.04668 -0.71332 -0.06 -1.06 s-0.02 -0.8 -0.02 -1.36 c0 -0.13332 0.07332 -0.23332 0.22 -0.3 s0.31336 -0.10668 0.50004 -0.12 s0.36 0.013359 0.52 0.08004 s0.26668 0.16668 0.32 0.3 c0.08 0.24 0.13332 0.59332 0.16 1.06 s0.04668 0.96 0.06 1.48 s0.02 1.0467 0.02 1.58 s-0.01332 0.98664 -0.04 1.36 z M111.80000000000001 28.68 c0.08 -0.02668 0.30668 -0.10016 0.68 -0.22016 s0.68 -0.14 0.92 -0.06 c0.77332 -0.02668 1.3666 0.17332 1.78 0.6 s0.44664 1.2534 0.09996 2.48 c-0.50668 1.36 -1.18 2.4933 -2.02 3.4 s-1.8333 1.7734 -2.98 2.6 c0.26668 0.69332 0.66668 1.08 1.2 1.16 s1.0933 -0.0066796 1.68 -0.26 s1.16 -0.59332 1.72 -1.02 s1.0133 -0.8 1.36 -1.12 c0.56 -0.48 1.0067 -0.88668 1.34 -1.22 s0.68664 -0.74 1.06 -1.22 c0.08 -0.05332 0.12668 -0.04664 0.14 0.020039 s0.0066408 0.16668 -0.020039 0.3 s-0.06668 0.32 -0.12 0.56 c-0.08 0.18668 -0.16 0.35336 -0.24 0.50004 s-0.19332 0.30668 -0.34 0.48 s-0.34 0.38 -0.58 0.62 s-0.53332 0.56 -0.88 0.96 c-0.4 0.37332 -0.78668 0.74 -1.16 1.1 s-0.76664 0.67332 -1.18 0.94 s-0.86664 0.45336 -1.36 0.56004 s-1.06 0.10668 -1.7 0 c-0.53332 -0.18668 -0.96 -0.38668 -1.28 -0.6 s-0.56668 -0.43332 -0.74 -0.66 s-0.3 -0.43336 -0.38 -0.62004 s-0.13332 -0.34668 -0.16 -0.48 c-0.13332 -0.53332 -0.18664 -1.2533 -0.15996 -2.16 s0.29336 -2.08 0.80004 -3.52 c0.34668 -0.74668 0.72 -1.38 1.12 -1.9 s0.86668 -0.92668 1.4 -1.22 z M110.04000000000002 35.76 c0.34668 -0.18668 0.75312 -0.44672 1.2198 -0.78004 s0.90668 -0.72 1.32 -1.16 s0.77332 -0.92668 1.08 -1.46 s0.47336 -1.0933 0.50004 -1.68 c0.08 -0.4 0.06668 -0.68 -0.04 -0.84 c-0.05332 -0.08 -0.10664 -0.12 -0.15996 -0.12 c-0.45332 -0.21332 -0.90664 -0.14664 -1.36 0.20004 s-0.86664 0.84 -1.24 1.48 s-0.68664 1.3533 -0.93996 2.14 s-0.38 1.5267 -0.38 2.22 z"></path></g>
			</g>
		</svg>
	