
        <svg xmlns="http://www.w3.org/2000/svg" xmlns:xlink="http://www.w3.org/1999/xlink" version="1.1" width="3025.756429787669" height="3403.434190638356" viewBox="0 0 3025.756429787669 3403.434190638356">
			
			<g transform="scale(20.17170953191779) translate(10, 10)">
				<defs id="SvgjsDefs2139"/><g id="SvgjsG2140" featureKey="symbolFeature-0" transform="matrix(1.9417451277303477,0,0,1.9417451277303477,-47.10822978788903,-23.030592796542155)" fill="#fff"><path xmlns="http://www.w3.org/2000/svg" d="M33.4 35c0-.1.1-.3-.1-.4-.2 0-.3.2-.3.4s-.1.4-.1.6c0 .2.1.3.3.3s.3-.1.3-.3c-.1-.2-.1-.4-.1-.6M39 61.8c0-.4-.2-.7-.6-.8-.2 0-.4.1-.4.3v.1c0 .4.3.7.7.7.2.1.3-.1.3-.3m-7.7-28.5c.2 0 .4 0 .5-.2.1-.2 0-.4-.2-.5-.3-.1-.6-.3-.9-.4-.2-.1-.4 0-.5.1-.1.1-.1.3 0 .5.2.4.7.4 1.1.5m5.1 23.6v.4c.1.2.1.4.4.4.3 0 .4-.2.4-.4.1-.3.1-.6.1-.9 0-.3-.2-.5-.5-.5s-.4.2-.5.5c.1.1.1.3.1.5m-3.3-18c0-.2 0-.5-.3-.6-.3-.1-.4.1-.5.4-.1.4-.3.8-.4 1.3-.1.2 0 .4.2.5.2.1.3 0 .4-.1.3-.5.5-1 .6-1.5m9.1 12.6c.2 0 .3-.1.5-.1s.4-.3.4-.5c0-.1-.1-.2-.2-.3-.3-.3-.8-.4-1.2-.4-.3 0-.5.3-.5.5s.1.4.3.5c.2.2.5.3.7.3m-2.5 2.6c0-.5-.2-.9-.4-.9-.4.1-.4.4-.5.7 0 .5-.1.9-.2 1.4-.1.2-.1.3.1.4.2.1.4 0 .5-.2.2-.4.4-.9.5-1.4m10.6 15.5c.5 0 1-.4 1.1-.9 0-.3-.2-.6-.5-.6h-.1c-.5 0-1 .4-1.1.9 0 .4.2.6.6.6-.1.1 0 .1 0 0M37.1 51.2c.2 0 .5-.1.6-.3.3-.3.6-.7.8-1.1.1-.1.1-.3 0-.4-.1-.1-.2-.1-.3-.1-.5.3-.9.5-1.4.8-.2.1-.3.4-.2.7.1.3.3.4.5.4m11.7 27.9c0 .3 0 .5.3.6.3.1.6-.1.7-.3.1-.4.4-.7.4-1.1 0-.2.1-.3-.1-.5-.1-.1-.3-.1-.5 0-.5.2-.8.7-.8 1.3M44 55.7c0-.4-.1-.8-.4-1.1-.1-.2-.2-.4-.4-.3-.3.1-.6.2-.6.5 0 .5.1.9.4 1.3.2.2.3.4.6.3.4-.1.4-.4.4-.7m3.6 16.9v.6c0 .1 0 .3.2.3.2.1.3 0 .4-.1.4-.5.5-1.2.5-1.8 0-.2-.2-.4-.4-.4s-.4.1-.5.3c-.2.3-.3.7-.2 1.1M41 57.7c-.3 0-.6.1-.7.4-.1.3 0 .5.2.7.5.4 1.1.6 1.7.6.3 0 .4-.3.3-.5-.2-.7-.8-1.1-1.5-1.2m9.8 14.8c0 .5.2 1.1.4 1.5.1.3.4.6.8.5.3-.1.3-.4.3-.8 0-.2-.3-.5-.2-.6.2-.5-.1-.9-.3-1.2-.2-.2-.5-.2-.7 0l-.1.1c-.2.1-.2.3-.2.5m1.8-2.5c.8 0 1.5-.6 1.7-1.4.1-.5-.2-.9-.6-.8-.7.2-1.3.6-1.7 1.1-.2.2-.2.4-.1.7.1.2.4.4.7.4m-3 5.5c0-.4-.2-.6-.6-.6-.8 0-1.6.4-2.1.9-.3.2-.3.7-.1.9l.1.1c.3.3 1 .4 1.2 0 .2-.3.4-.3.6-.4.4-.2.5-.6.9-.8v-.1M32.1 25.2c-.6-.3-1.1-.7-1.5-1.2-.6-.9-1.1-1.8-1.5-2.8-.6-1.4-.8-2.9-.6-4.4v-.2c-.1-.1-.1 0-.2.1-.5.4-1.1.7-1.6 1.2-1.1.8-1.5 2.1-1.2 3.4.2.8.6 1.5.9 2.3.2.6.5 1.1.9 1.6.3.3.5.6.7 1 .3.8 1 1.4 1.8 1.7.3.1.6.1.9-.1.3-.3.7-.4 1.2-.3.1 0 .2 0 .3-.1 1-.7 2.1-1.2 3.3-1.3.1 0 .2-.1.3-.1.6-.3 1.3-.5 2-.6h1.4c1-.1 1.9.1 2.8.4.7.3 1.5.3 2.2-.1.9-.5 1.9-.8 2.9-.9.1 0 .5-.1.2-.3-.2-.4-.4-.7-.4-1.1-.5-1.4-1-2.9-1.3-4.4-.2-.8-.2-1.7 0-2.5 0-.1.1-.3.2-.3.2 0 .2.2.2.3 0 1.2.3 2.4.9 3.5.3.7.6 1.4.9 2.2.1.5.3 1 .5 1.4.2.3.5.7.9.8.5.1 1.1.2 1.7.1.8-.1 1.6-.4 2.5-.5.2 0 .3-.1.3-.3 0-.3.1-.3.3-.1.1.1.2.2.2.3.5.6 1.3.9 2.1.9.9 0 1.8-.1 2.7 0 .6 0 1.2.1 1.7.3.4.2.9.2 1.4 0 .2 0 .4-.1.6-.1.1 0 .2 0 .3-.1 0-.1-.1-.2-.2-.2-.6-.7-1-1.5-1.2-2.4-.2-.7-.3-1.4-.4-2.1-.1-.5-.2-1-.1-1.4.2-.9.4-1.8.7-2.7 0-.1 0-.2.2-.3.1 0 .2.1.2.2.2.5.3 1 .2 1.6-.2.8-.1 1.6.2 2.4.4.9.7 1.8 1 2.7.2.7.6 1.3 1.1 1.8.1.2.4.2.6.2.9-.1 1.9 0 2.7.4.5.2 1 .4 1.6.4.2 0 .4.1.5.2.1.1.3.2.5.1.4-.1.9-.1 1.3-.2.5 0 1-.4 1.1-1 .3-1.3.8-2.5 1.2-3.7.7-1.8.5-3.7-.4-5.3-.4-.6-1.1-1-1.9-1.1-.4-.1-.7.3-.9.6l-.9 2.1c-.4.7-.5 1.6-.4 2.4v.9c0 .1 0 .2-.2.2s-.2-.1-.2-.2c-.4-.7-.7-1.5-.7-2.3v-.1c.3-1.3.7-2.5 1.3-3.7.2-.5.2-.5-.3-.6-.6-.1-1.3-.2-1.9-.4-.2-.1-.5-.1-.7-.2-.7-.1-1.4-.1-2.1-.2-.7-.1-1.5-.1-2.2-.1-1 0-1.9 0-2.8-.2-1.7-.2-3.3-.3-5-.2-.2 0-.3.1-.4.2-.3.4-.4.8-.4 1.3.1.3.1.6.2.8.1.7.3 1.5.5 2.2.5 1.3 1.3 2.5 1.8 3.9 0 .1.3.2.1.4-.2.1-.3 0-.4-.1l-.1-.1c-1.2-1.6-2.2-3.4-2.9-5.2-.3-.8-.5-1.6-.4-2.5.1-.4-.1-.4-.4-.3-1.4.3-2.9.5-4.4.5-2 .1-4.1.1-6.1.2-1 0-2 .1-3 .3-.5.2-1.2.9-1.2 1.4 0 1.1.2 2.2.4 3.3.1.5.2 1.1.1 1.6-.1.8.2 1.6.8 2.1.1.1.3.1.2.3-.1.1-.2.1-.3 0-.7-.3-1.2-1.1-1.2-1.9 0-.5-.1-.9-.2-1.4-.3-.9-.6-1.9-.7-2.8-.2-.6-.2-1.2-.2-1.8.1-.3 0-.3-.3-.3-.8.3-1.7.3-2.5.2-.5-.1-1 0-1.5.1-.6.2-1.3.5-1.9.7-.1 0-.2.1-.2.2-.3.5-.5 1.1-.6 1.7 0 1.4.2 2.8.7 4.2.3 1 .8 1.9 1.5 2.6 0 .5.1.7.2.9m6.3 41.6c.2-.4.6-.6.9-.4.5.2.8.7.7 1.2.1.4-.2.9-.6 1.1-.1.1-.3.1-.4 0-.1-.1-.1-.2-.1-.4.1-.2.2-.3.2-.5.2-.3.1-.7-.1-.9-.2-.3-.4-.1-.6-.1-.3.1-.1.3-.1.4.4 1.6 1 3.1 1.4 4.6.4 1.4.8 2.8 1.3 4.1.5 1.3 1 2.6 1.4 3.9.4 1 .7 2.1 1 3.1.1.3.3.3.5.2.7-.4 1.1-1.2.9-2-.2-.6-.5-1.2-.9-1.7-.1-.2-.3-.3-.1-.5.2-.2.4-.1.5 0 .7.4 1.1 1.1 1.3 1.9.4 1.4-.3 2.8-1.6 3.3-.2.1-.2.2-.1.3.2.7.6 1.3 1 1.9.3.4.9.6 1.4.5.2 0 .4-.1.4-.3 0-.2-.2-.1-.4-.2-.4-.1-.8-.5-.8-1-.1-.4 0-.9.3-1.2.2-.2.4-.2.6-.1.1.1.2.2.2.3 0 .1 0 .2-.1.2-.5.1-.3.5-.3.8.1.3.4.4.7.5.3 0 .3-.3.3-.4.2-.6.3-1.3.5-1.9l.6-1.5c.1-.2.1-.3-.2-.4-.3-.1-.6-.3-.8-.5-.7-.7-1.2-1.6-1.8-2.4-.1-.1-.1-.2-.2-.3-.3-.7-.5-1.4-.5-2.2-.2-1.3-.2-2.6.1-3.8.4-2.6 2.2-4.7 4.6-5.6.8-.4 1.5-.6 2.4-.8.8-.2 1.7 0 2.5.4.2.1.3.1.4-.1.2-.8.5-1.6.8-2.3.8-2.4 1.6-4.7 2.6-7 .9-2.1 1.7-4.3 2.4-6.5.5-1.6 1.1-3.1 1.9-4.5 1-1.6 1.9-3.3 2.7-4.9.2-.4.5-.8.7-1.3.2-.4.4-.9.6-1.3.5-.9 1-1.7 1.4-2.6.4-.9.7-1.8 1.1-2.6.8-1.7 1.4-3.4 1.7-5.3.2-.7.1-.7-.5-.5-.4.1-.9.1-1.3-.1-.5-.2-1-.5-1.5-.7-1.2-.6-2.5-.8-3.8-.5-.6.1-1.2.1-1.7.3-.7.3-1.4.2-2.1-.1-.1 0-.2-.1-.3-.1-.7-.1-1.5-.2-2.3-.2-1 .1-2.1-.1-3-.5-.8-.4-1.7-.5-2.5-.3-.9.2-1.8.3-2.7.4-1.5 0-2.9.4-4.2 1-1.1.6-2.4.7-3.5.2-1.5-.5-3.2-.7-4.8-.4-.4.1-.9.3-1.3.3-.1 0-.2.1-.2.1-.3.3-.7.5-1.1.5-.5.1-1 .2-1.4.4-.4.2-.9.3-1.3.5-.5.5-1.4.6-2 .3-.2-.1-.3 0-.3.2.1.6.2.7.9.8.7.1 1.4.4 2 .8 1.7 1.1 2.4 2.9 3 4.7.4 1.2.4 2.5.1 3.8-.4 1.5-1 3-2 4.2-.1.1-.2.3-.1.5.5 1.8.9 3.6 1.1 5.4 0 .2 0 .5.2.6s.3-.3.4-.4c1-1.1 2.2-1.8 3.6-2.1 1.4-.4 2.9-.2 4.1.5.8.5 1.5 1.2 2.1 1.9.2.4.5.8.9 1.1.3.2.4.4.6.7.3.7.5 1.4.5 2.2 0 1.4-.2 2.9-.5 4.3-.1.6-.3 1.1-.6 1.6-.6 1.6-1.9 2.9-3.5 3.6-1.4.5-2.7 1.2-4.2.7-.2-.1-.2.1-.2.2.6 1 .8 2 1.1 2.9M30 35.9c-.3-.9-.6-1.9-.8-2.9-.4-1.4-.6-2.8-.6-4.3 0-.2-.1-.3-.2-.4-.6-.4-1.1-.9-1.4-1.6-.5-.7-1-1.5-1.4-2.2-.4-.8-.8-1.6-1.1-2.5-.2-.5-.3-1-.2-1.4v-.7c.1-1 .5-1.9 1.2-2.5.7-.7 1.5-1.3 2.4-1.7 1.1-.4 2.1-.8 3.2-1.2.7-.3 1.5-.5 2.3-.5.2 0 .5 0 .7.1.6.1 1.2 0 1.7-.2 1.3-.4 2.7-.7 4.1-.8 1.6-.2 3.2-.2 4.7-.2 2.3 0 4.6-.1 6.9-.5.6-.1 1.3-.3 1.9-.3 1.4-.2 2.8-.3 4.2-.2.7 0 1.4.1 2.1.2 1.3.2 2.7.1 4 .2l3.3.3c.5 0 .9.1 1.3.3.3.1.6.2 1 .2s.9.1 1.3.4c.2.1.5.2.7.2.7-.1 1.3.1 1.9.5.1 0 .1.1.2.1.6.2 1.1.6 1.3 1.2.2.3.3.6.5.9.3.6.5 1.3.5 1.9.2 1.5-.1 3.1-.8 4.5-.3.8-.6 1.6-.8 2.4-.2.8-.7 1.6-1.5 1.9-.1 0-.1.1-.1.2 0 .8-.2 1.7-.5 2.5-.1.4-.2.9-.3 1.3-.3.9-.6 1.8-1 2.7-.4 1.1-.9 2.2-1.3 3.2-1 2-2 4-3.1 5.9-.6 1.1-1.1 2.1-1.7 3.2-.4.6-.7 1.2-1.1 1.8-.5 1.2-.9 2.4-1.3 3.7-.7 2.3-1.6 4.6-2.5 6.8-1.3 3.1-2.4 6.2-3.4 9.4-.7 2.1-1.6 4.2-2.7 6.1-.3.5-.5 1.1-.8 1.6-.3.6-.5 1.3-.7 2-.2.6-.4 1.1-.7 1.6-.3.6-.3 1.3-.6 1.9-.7 1.4-1.3 2.9-1.7 4.5-.2.7-.5 1.4-.9 2-.2.4-.6.7-1 .8-1.1.4-2.4 0-3-1-.7-1.1-1.2-2.3-1.6-3.6-.6-1.8-1.2-3.7-1.9-5.5-.9-2.3-1.6-4.6-2.2-6.9-.2-.7-.5-1.3-.6-2-.3-1.3-.8-2.6-1.1-3.9-.3-1.1-.6-2.2-.8-3.3-.3-1.7-.8-3.3-1.2-5-.3-1.6-.8-3.1-1.1-4.7-.3-1.2-.5-2.5-.8-3.7-.2-1.1-.3-2.2-.6-3.3-.2-.9-.5-1.8-.7-2.6-.2-1-.5-1.9-.7-2.9-.2-1-.5-2-.8-3.1 0-.3 0-.6-.1-.9.2.1.4.4.6.4.2.1.6.3.7 0 .2-.3-.2-.5-.3-.6-.7-.5-.7-.5-1 .2"/><path xmlns="http://www.w3.org/2000/svg" d="M51.8 40.6c0-.2 0-.4-.2-.5-.2-.1-.3.1-.4.2-.1.2-.3.4-.4.7-.1.2-.1.4.1.6.2.1.5.1.6-.1.2-.3.3-.6.3-.9m3.4.7c.5 0 .7-.3.6-.5-.3-.5-.7-.8-1.2-.9-.2 0-.4 0-.5.2-.1.3 0 .6.3.7h.1c.1 0 .1 0 .1.1 0 .3.4.3.6.4m-.5-11.5c-.2 0-.3 0-.5.1-.3.1-.5.2-.7.4-.2.2.1.3 0 .5s0 .3.2.4c.1.1.3.1.5.1.3-.1.6-.2.8-.4.2-.1.3-.4.2-.6 0-.3-.2-.5-.5-.5m2.2 1.4c-.2 0-.5.1-.6.3-.1.2-.1.5 0 .7.1.2.3.4.5.6.3.2.6.2.9 0 0 0 0-.1.1-.1.1-.7-.2-1.3-.9-1.5m.3 5c-.5 0-.8.3-.8.9 0 .7.3 1.1.9 1.1.4 0 .8-.4.8-.8v-.1c0-.6-.4-1-.9-1.1M51.6 32c0-.3-.1-.5-.4-.6-.3-.1-.6-.1-.8.1-.3.3-.6.6-.7 1-.1.3.3.8.5.8.8-.1 1.3-.6 1.4-1.3M49 37.2c0 .8.5 1.2 1.1.9.5-.5.7-1.2.4-1.9-.2-.3-.6-.4-.9-.2 0 0-.1 0-.1.1-.3.2-.5.7-.5 1.1m5.1-3.7c-.3 0-.6.1-.8.4-.2.2-.3.5-.4.7-.1.4 0 .8.3 1.1.3.1.7 0 1-.3.3-.3.5-.7.5-1.2 0-.3-.2-.6-.6-.7m7.9 1.8c0 2.1-.6 4.2-1.9 5.8-.5.8-1.2 1.5-2 2-.7.4-1.5.6-2.3.5-1.1.1-2.2 0-3.3-.2-.5-.1-.9-.3-1.3-.5-.5-.2-1-.4-1.4-.6-.9-.6-1.7-1.3-2.3-2.1-.2-.2-.4-.5-.6-.7-.6-.6-.9-1.5-.9-2.3-.1-1.8.3-3.5 1.3-5 .9-1.4 2.1-2.5 3.6-3.2.6-.3 1.2-.4 1.9-.5.5-.1.9-.3 1.4-.4.7 0 1.5.2 2.1.5.7.4 1.5.7 2.2 1.1.7.3 1.4.7 2.1 1.2 1.1 1.1 1.6 2.5 1.5 4-.1.2-.1.3-.1.4M49.8 48.5c0 .5-.1.9-.2 1.4 0 .2-.2.4-.4.3-.3 0-.3-.2-.3-.4 0-.7-.1-1.3-.3-2-.1-.8-.9-1.4-1.7-1.2-.4 0-.9 0-1.3.1-.8.1-1.5-.4-1.6-1.2v-.3c0-.1 0-.2.1-.3.1 0 .2 0 .2.1l.1.1c.5.9 1.3.7 2 .5.7-.2 1.5-.1 2.1.3.4.2.7.5.8.9.1.3.3.6.4.9.1.3.2.6.1.8M40.8 35.7c0-.8.3-1.5.9-2 .9-.7.6-1.3 0-1.8-.1-.1-.2-.2-.2-.4.1-.2.3-.1.4 0 .9.3 1.4 1.3 1.1 2.2-.1.2-.2.4-.3.5-.2.3-.4.6-.5.9-.2.6-.1 1.3.5 1.7.1.1.3.2.2.4-.1.2-.3.3-.5.3-.8-.2-1.5-.9-1.6-1.8M35.7 45.3v.2c0 .1.2.3 0 .3-.2.1-.2-.1-.3-.2-.2-.4-.3-.9 0-1.3.3-.6.8-1.2 1.4-1.5.3-.2.7-.2 1-.1.1 0 .2.1.3 0 .1-.1.1-.2 0-.3-.1-.1-.2-.1-.3-.1h-.2c-.1 0-.2.1-.3 0-.1-.1 0-.2.1-.3.2-.3.6-.4 1-.2.3.1.5.5.5.8-.1.6-.1 1.3 0 1.9.1.7-.3 1.3-.8 1.6-.3.2-.6.3-1 .5-.1.1-.4.1-.5-.1-.1-.2 0-.3.1-.4.3-.2.5-.5.8-.6.5-.2.8-.9.6-1.4-.1-.4-.5-.7-.9-.6-.1 0-.2.1-.3.1-.7.2-1.2.9-1.2 1.7M37.3 30.5v.2c0 .2 0 .6.2.6.3.1.4-.3.6-.4.1-.1 0-.2-.1-.2-.3-.4-.6-.9-.7-1.4 0-.2 0-.3.1-.5.2.3.2.7.3 1 .1.3.4.5.7.5.6.1 1.1-.3 1.2-.8 0-.2 0-.5-.1-.7-.2-.3-.3-.7-.4-1-.1-.2 0-.5.2-.6.2-.1.3.1.4.2.2.3.5.7.7 1 .5.8.2 1.8-.6 2.3-.2.1-.3.2-.5.2-.3.1-.6.1-.7.5-.2.5-.7.8-1.2.6-.1 0-.3-.1-.4-.2-.3-.4-.2-.9.1-1.2.1 0 .1-.1.2-.1M50.6 55.3c-.1.2-.2.5-.3.8 0 .2 0 .3.3.4.8.1 1.2.6.9 1.3-.3.6-.4 1.4-.2 2v.7c0 .2-.2.4-.4.4s-.5-.1-.5-.4c-.1-.5-.3-1-.5-1.4-.2-.4-.1-.9.2-1.2.2-.3.3-.4-.1-.6-.3-.1-.5-.4-.4-.7 0-.7.4-1.2 1-1.3M42.5 68.2c.1-.7.1-1.2.9-1.3.4-.1.8-.4 1.1-.8.2-.3.4-.5.7-.6.4-.1.7.1.6.4 0 .8-.4 1.5-1 1.9-.3.1-.6.2-.9.2-.3 0-.4.1-.4.4 0 .3.1.7.1 1 0 .2.1.4-.2.5-.2 0-.4 0-.5-.2-.1-.4-.3-.9-.4-1.5M48.1 64.8c0-.5.3-1 .8-1.2.4-.2 1-.1 1.2.4.1.2.2.2.4.1.3-.2.6-.3 1-.4.9-.1 1.8.2 2.4 1 .1.1.2.2.2.4.1.2 0 .3-.2.4-.1.1-.3.1-.4 0-.2-.1-.3-.3-.4-.5-.4-.6-1.2-.7-1.8-.4-.6.2-1.1.7-1.3 1.3 0 .1-.1.2-.2.2s-.2-.1-.2-.2c-.1-.3 0-.6.1-.8.2-.2 0-.4-.1-.5-.1-.2-.4-.2-.5-.1-.4.2-.5.7-.3 1.1 0 .1.2.2 0 .3-.2.1-.3 0-.4-.2-.3-.3-.4-.6-.3-.9M58.7 47c.1.9-.5 1.8-1.4 2.1-.2.1-.5.2-.7.3-.4.1-.6.5-.5.9v.1c0 .2.2.6-.2.7-.3.1-.5-.2-.6-.5-.3-.8 0-1.6.8-2 .1 0 .2-.1.3-.1.7-.1 1.3-.6 1.6-1.3.1-.3.1-.6.1-.8 0-.1 0-.3.1-.3.2-.1.2.1.3.2.2.1.3.4.2.7M62.7 27.5c.4 0 .7.2.9.5.2.2.3.5.4.8.1.5.4.9.9 1 .6.2 1 .8 1 1.4 0 .2 0 .4-.2.5-.3.1-.4-.1-.4-.3-.1-.6-.7-.6-1.1-.8-.6-.2-1-.8-1.1-1.4 0-.1 0-.2-.1-.3-.2-.7-.2-.8-1-.7-.2 0-.2-.1-.1-.2.1-.4.4-.6.8-.5M55.4 54.2c0-.4-.3-.6-.7-.7-.6 0-1.1.4-1.1.9.1.5.5.9 1.1.9.3 0 .7-.6.7-1.1m-2.5.4c0-.6.4-1.1 1-1.2.1-.1.3-.1.2-.3 0-.1.1-.1.2-.1.7 0 1.4.3 1.8.9.1.8-.2 1.6-.9 2.1-.7.3-1.5 0-1.9-.6-.2-.3-.4-.5-.4-.8M46.7 29.6c-.5 0-.8-.3-.9-.8-.1-.4 0-.8.3-1.1.1-.2.3-.2.5-.1s.2.3 0 .5c-.2.1-.1.3-.1.5 0 .1.2.1.3.1.2 0 .2-.2.3-.3.1-.2.3-.4.5-.4s.4.1.5.2c.1.2.1.4 0 .6-.4.5-.9.8-1.4.8M64.5 36.9c.2.1.3-.1.4-.3.1-.2.1-.4-.1-.5-.2-.1-.3 0-.5 0-.1.1-.2.2-.3.1-.1-.1 0-.2 0-.4.2-.4.7-.5 1.1-.3.1 0 .1.1.2.1.5.6.4 1.4-.2 1.9-.1 0-.1.1-.2.1-.3.1-.7.1-1-.2-.1-.1-.2-.3-.1-.5.3.1.5 0 .7 0M53 52.3c0 .3-.1.6-.3.7-.1.1-.3.1-.5 0s-.1-.3-.1-.4c0-.1.1-.1.1-.2.1-.2.2-.4 0-.5s-.4 0-.6.1c-.1.1-.2.3-.3.2-.2-.1-.1-.3 0-.5.3-.4.7-.5 1.1-.4.4.2.7.6.6 1M67.1 29.2c0-.5.3-.9.8-.9h.1c.1 0 .2.1.3.2 0 .1 0 .2-.2.3-.2.1-.3.2-.2.4.1.2.3.2.5.2s.4-.3.5.1c.1.3-.1.5-.4.6-.5.2-1 0-1.3-.4-.1-.2-.1-.3-.1-.5M42.9 77.9c.3-.1.6 0 .7.3v.1c.2.6.2 1.2-.1 1.7-.1.1-.2.2-.3.1-.2-.1-.3-.3-.3-.5.1-.3.1-.7.1-1 .1-.2.1-.5-.1-.7M43 42.1c-.4 0-.7-.3-.7-.6-.1-.3.1-.7.4-.9.1 0 .2-.1.3 0 .1.1 0 .2 0 .2-.1.1-.1.3-.1.4 0 .2.1.3.3.1.2-.1.3-.3.5 0 .1.2.1.5-.1.6-.3.2-.5.2-.6.2M54.1 58.3V58c.1-.2.1-.4.3-.4.2 0 .1.3.1.4 0 .1.1.2.1.3.1.2.3.3.4 0 .1-.1.1-.4.4-.2.2.1.2.3.1.4-.1.4-.4.7-.8.7-.4-.1-.6-.5-.6-.9M58.3 55.2c.1 0 .3.1.3.2 0 .2-.1.3-.2.3-.3.1-.5.2-.8.4-.2.2-.2 0-.2-.1 0-.5.4-.8.9-.8 0-.1 0-.1 0 0"/></g><g id="SvgjsG2141" featureKey="nameFeature-0" transform="matrix(0.07896398804286463,0,0,0.07896398804286463,120,73.1377133951593)" fill="#fff"><path d="M5.92 40.32 l-0.88 0 c-2.8 0 -5.04 -2.24 -5.04 -5.04 l0 -19.28 c0 -2.8 2.24 -5.08 5.04 -5.08 l0.88 0 c2.8 0 5.04 2.28 5.04 5.08 l0 2.04 l-3.92 0 l0 -2.04 c0 -0.68 -0.48 -1.16 -1.12 -1.16 l-0.88 0 c-0.6 0 -1.16 0.48 -1.16 1.16 l0 19.28 c0 0.6 0.56 1.16 1.16 1.16 l0.88 0 c0.64 0 1.12 -0.56 1.12 -1.16 l0 -10.4 l-2.24 0 l0 -3.88 l6.16 0 l0 14.28 c0 2.8 -2.24 5.04 -5.04 5.04 z M18.76 18.28 c2.72 0 4.92 2.16 4.92 4.88 l0 1.92 l-3.8 0 l0 -1.92 c0 -0.64 -0.48 -1.12 -1.12 -1.12 l-0.84 0 c-0.6 0 -1.12 0.48 -1.12 1.12 l-0.08 16.88 l-3.76 0 l0.08 -16.88 l0 -5.76 l3.76 0 l0 1 c0.36 -0.08 0.76 -0.12 1.12 -0.12 l0.84 0 z M35.04 32.76 l0 7.2 l-3.68 0 l0 -0.12 c-0.36 0.08 -0.72 0.12 -1.12 0.12 c-2.8 0 -5.04 -2.24 -5.04 -5.04 l0 -4.28 c0 -1.12 0.44 -2.16 1.24 -2.96 c0.76 -0.76 1.8 -1.2 2.92 -1.2 l1.92 0 l0 -4.32 c0 -0.6 -0.52 -1.12 -1.12 -1.12 l-0.2 0 c-0.64 0 -1.12 0.52 -1.12 1.12 l0 3.04 l-3.72 0 l0 -3.04 c0 -2.68 2.16 -4.84 4.84 -4.84 l0.2 0 c2.68 0 4.84 2.16 4.84 4.84 z M30.240000000000002 36.24 c0.6 0 1.12 -0.48 1.12 -1.08 l-0.04 -4.92 l-1.96 -0.04 c-0.16 0 -0.24 0.08 -0.32 0.12 c-0.04 0.08 -0.12 0.16 -0.12 0.32 l0 4.28 c0 0.72 0.6 1.32 1.32 1.32 z M43 17.32 c2.64 0 4.76 2.16 4.76 4.8 l0 13.08 c0 2.64 -2.12 4.8 -4.76 4.8 l-5.96 0 l0 -28.56 l3.8 0 l0 5.88 l2.16 0 z M43.96 35.2 l0 -13.08 c0 -0.56 -0.44 -1 -0.96 -1 l-2.16 0 l0 15.04 l2.16 0 c0.52 0 0.96 -0.44 0.96 -0.96 z M60.56 23.72 l0 3.48 l-10.8 0 l0 -3.48 l10.8 0 z M72.48 32.76 l0 7.2 l-3.68 0 l0 -0.12 c-0.36 0.08 -0.72 0.12 -1.12 0.12 c-2.8 0 -5.04 -2.24 -5.04 -5.04 l0 -4.28 c0 -1.12 0.44 -2.16 1.24 -2.96 c0.76 -0.76 1.8 -1.2 2.92 -1.2 l1.92 0 l0 -4.32 c0 -0.6 -0.52 -1.12 -1.12 -1.12 l-0.2 0 c-0.64 0 -1.12 0.52 -1.12 1.12 l0 3.04 l-3.72 0 l0 -3.04 c0 -2.68 2.16 -4.84 4.84 -4.84 l0.2 0 c2.68 0 4.84 2.16 4.84 4.84 z M67.68 36.24 c0.6 0 1.12 -0.48 1.12 -1.08 l-0.04 -4.92 l-1.96 -0.04 c-0.16 0 -0.24 0.08 -0.32 0.12 c-0.04 0.08 -0.12 0.16 -0.12 0.32 l0 4.28 c0 0.72 0.6 1.32 1.32 1.32 z M85.28 23.72 l0 3.48 l-10.8 0 l0 -3.48 l10.8 0 z M93.24 17.32 c2.64 0 4.76 2.16 4.76 4.8 l0 13.08 c0 2.64 -2.12 4.8 -4.76 4.8 l-5.96 0 l0 -28.56 l3.8 0 l0 5.88 l2.16 0 z M94.2 35.2 l0 -13.08 c0 -0.56 -0.44 -1 -0.96 -1 l-2.16 0 l0 15.04 l2.16 0 c0.52 0 0.96 -0.44 0.96 -0.96 z M103.8 39.88 c0.04 -6.28 0.04 -16.32 0 -22.52 l-3.8 0.04 c0.04 6.16 0.04 16.16 0 22.44 z M100 12.600000000000001 l3.8 0 l0 3.72 l-3.8 0 l0 -3.72 z M114.52 21.2 l-2.72 0 l0 12.76 c0 1.2 1 2.16 2.2 2.16 l0 3.84 c-3.32 0 -6 -2.68 -6 -6 l0 -12.76 l-2.72 0 l0 -3.84 l2.72 0 l0 -6 l3.8 0 l0 6 l2.72 0 l0 3.84 z M121.4 39.92 c-2.88 0 -5.2 -2.36 -5.2 -5.24 l0 -12.48 c0 -2.64 2.16 -4.8 4.8 -4.8 l0.84 0 c2.64 0 4.8 2.16 4.8 4.8 l0 5.24 l-6.72 0.12 l0 7.12 c0 0.84 0.64 1.52 1.48 1.52 s1.52 -0.68 1.52 -1.52 l0 -2.48 l3.72 0 l0 2.48 c0 2.88 -2.36 5.24 -5.24 5.24 z M121.84 21.08 l-0.84 0 c-0.6 0 -1.08 0.52 -1.08 1.12 l0 1.68 l3 -0.08 l0 -1.6 c0 -0.6 -0.48 -1.12 -1.08 -1.12 z"/></g>
			</g>
		</svg>
	